<svg xmlns="http://www.w3.org/2000/svg" width="1200" height="630" viewBox="0 0 1200 630">
  <defs>
    <linearGradient id="bg" x1="0" y1="0" x2="1" y2="1">
      <stop offset="0%" stop-color="#23294a"/>
      <stop offset="60%" stop-color="#0f1220"/>
    </linearGradient>
    <linearGradient id="acc" x1="0" y1="0" x2="1" y2="0">
      <stop offset="0%" stop-color="#ff5d5d"/>
      <stop offset="100%" stop-color="#ffd166"/>
    </linearGradient>
  </defs>
  <rect width="1200" height="630" fill="url(#bg)"/>
  <g opacity="0.5">
    <rect x="0" y="560" width="1200" height="14" fill="#444"/>
    <rect x="0" y="566" width="60" height="6" fill="#111"/>
    <rect x="120" y="566" width="60" height="6" fill="#111"/>
    <rect x="240" y="566" width="60" height="6" fill="#111"/>
    <rect x="360" y="566" width="60" height="6" fill="#111"/>
    <rect x="480" y="566" width="60" height="6" fill="#111"/>
    <rect x="600" y="566" width="60" height="6" fill="#111"/>
    <rect x="720" y="566" width="60" height="6" fill="#111"/>
    <rect x="840" y="566" width="60" height="6" fill="#111"/>
    <rect x="960" y="566" width="60" height="6" fill="#111"/>
    <rect x="1080" y="566" width="60" height="6" fill="#111"/>
  </g>
  <text x="90" y="230" font-family="Segoe UI, Arial, sans-serif" font-size="110" font-weight="900" fill="#eef0fb">Type<tspan fill="#ff5d5d">GP</tspan></text>
  <text x="92" y="300" font-family="Segoe UI, Arial, sans-serif" font-size="34" font-weight="600" fill="#9aa1c4">Corrida de digitação ao vivo, multiplayer</text>
  <text x="90" y="480" font-family="Consolas, Menlo, monospace" font-size="52" font-weight="800" fill="url(#acc)">🏎️ 🏎️ 🏎️ 🏁</text>
</svg>
